<svg width="21" height="25" viewBox="0 0 21 25" fill="none" xmlns="http://www.w3.org/2000/svg">
<g clip-path="url(#clip0_34_39)">
<path fill-rule="evenodd" clip-rule="evenodd" d="M13.0156 9.04928C13.7439 8.6832 14.6707 8.14432 15.5985 7.406C15.7942 7.81552 15.8156 8.17288 15.7148 8.46144C15.6434 8.6648 15.5088 8.84168 15.3318 8.9824C15.1401 9.13448 14.9008 9.2452 14.6362 9.30504C14.1341 9.41904 13.5479 9.35248 13.0156 9.04928ZM13.1419 12.8002L14.106 13.3615C12.1374 14.4737 11.6023 16.5388 10.9666 18.5502C10.3309 16.5388 9.79568 14.4737 7.82719 13.3615L8.79132 12.8002C8.88458 12.7646 8.9643 12.7003 9.01905 12.6163C9.07379 12.5323 9.10076 12.433 9.09608 12.3326C9.00775 10.4488 9.51235 9.61576 10.193 9.09272C10.4371 8.90536 10.7036 8.81128 10.9666 8.81128C11.2295 8.81128 11.496 8.90536 11.7402 9.09272C12.4208 9.61576 12.9254 10.4488 12.8371 12.3326C12.8324 12.433 12.8594 12.5323 12.9141 12.6163C12.9689 12.7003 13.0486 12.7646 13.1419 12.8002ZM10.9666 0.5C12.081 0.53016 13.1982 0.74824 14.1678 1.17248C14.8393 1.46664 15.4658 1.8552 16.0331 2.31984C16.2893 2.5296 16.5002 2.73224 16.7326 2.96552C17.3593 2.98736 18.2753 2.28552 18.7005 1.6288C17.9687 4.0472 14.6292 6.90312 12.3172 7.99592C12.3162 7.99552 12.3156 7.99496 12.3149 7.99448C11.9 7.67512 11.4333 7.51544 10.9666 7.51544C10.4998 7.51544 10.0332 7.67512 9.6183 7.99448C9.61759 7.99488 9.61695 7.9956 9.616 7.99592C7.30394 6.90312 3.96449 4.0472 3.23267 1.6288C3.65782 2.28552 4.57378 2.98736 5.20052 2.96552C5.43298 2.73232 5.64394 2.5296 5.90005 2.31984C6.46735 1.8552 7.09386 1.46664 7.76529 1.17248C8.73497 0.74824 9.85219 0.53016 10.9666 0.5ZM8.91751 9.04928C8.18925 8.6832 7.26243 8.14432 6.33465 7.406C6.13902 7.81552 6.11759 8.17288 6.2183 8.46144C6.28981 8.6648 6.42441 8.84168 6.60132 8.9824C6.79306 9.13448 7.03243 9.2452 7.29703 9.30504C7.79909 9.41904 8.38521 9.35248 8.91751 9.04928Z" fill="#111111"/>
<path fill-rule="evenodd" clip-rule="evenodd" d="M16.6147 6.50147C17.1255 5.98187 17.5756 5.40675 17.9375 4.89355L18.1213 5.24227C18.7131 6.43563 19.0205 7.62419 19.0205 8.96179L19.0193 11.0844L19.0304 12.1847C19.0732 14.886 19.6531 17.619 20.9666 20.1201L18.2184 17.8864L16.2739 21.0671L14.231 19.1286L10.9666 24.4685L7.70211 19.1287L5.65933 21.0672L3.71481 17.8864L0.966553 20.1202C2.28004 17.6191 2.85989 14.886 2.90282 12.1848L2.91393 11.0844L2.91266 8.96187C2.91266 7.62419 3.22004 6.43563 3.81195 5.24235L3.99568 4.89363C4.35758 5.40683 4.80758 5.98187 5.31846 6.50155L5.15893 6.83555C4.84901 7.48427 4.74639 8.20963 4.98782 8.89947C5.14346 9.34379 5.42751 9.72483 5.7937 10.0157C6.14925 10.2982 6.57004 10.4886 7.0106 10.5886C7.29758 10.6537 7.58997 10.6805 7.88044 10.6714C7.81266 11.0587 7.78306 11.4604 7.78116 11.8696L5.18878 13.3789L7.18925 14.5092C7.34914 14.5996 7.50135 14.7031 7.64433 14.8188C9.29362 16.3114 10.2852 20.7272 10.9666 22.884C11.6481 20.7272 12.6396 16.3114 14.289 14.8188C14.432 14.7031 14.5842 14.5996 14.7441 14.5092L16.7446 13.3789L14.1521 11.8696C14.1502 11.4604 14.1206 11.0587 14.0528 10.6714C14.3433 10.6805 14.6357 10.6537 14.9227 10.5886C15.3632 10.4886 15.7841 10.2982 16.1396 10.0157C16.5057 9.72483 16.7898 9.34379 16.9454 8.89947C17.1869 8.20963 17.0842 7.48435 16.7743 6.83555L16.6148 6.50155L16.6147 6.50147Z" fill="#111111"/>
</g>
<defs>
<clipPath id="clip0_34_39">
<rect width="20" height="24" fill="white" transform="translate(0.966553 0.5)"/>
</clipPath>
</defs>
</svg>
