<svg width="22" height="18" viewBox="0 0 22 18" fill="none" xmlns="http://www.w3.org/2000/svg">
<path fill-rule="evenodd" clip-rule="evenodd" d="M19.5676 0.114547C19.8251 0.0062042 20.1068 -0.0311625 20.3836 0.00633572C20.6603 0.0438339 20.922 0.154827 21.1413 0.327761C21.3606 0.500695 21.5295 0.729249 21.6305 0.989633C21.7315 1.25002 21.7609 1.53271 21.7156 1.8083L19.3531 16.1385C19.1239 17.5208 17.6072 18.3135 16.3395 17.625C15.2791 17.0489 13.7041 16.1614 12.2874 15.2354C11.5791 14.7718 9.40931 13.2875 9.67597 12.2312C9.90514 11.3281 13.551 7.93434 15.6343 5.91663C16.452 5.12392 16.0791 4.66663 15.1135 5.3958C12.7156 7.20621 8.86556 9.95934 7.59264 10.7343C6.46972 11.4177 5.88431 11.5343 5.18431 11.4177C3.90722 11.2052 2.72285 10.876 1.75618 10.475C0.449932 9.9333 0.513474 8.13746 1.75514 7.61455L19.5676 0.114547Z" fill="#111111"/>
</svg>
