<svg width="294" height="81" viewBox="0 0 294 81" fill="none" xmlns="http://www.w3.org/2000/svg">
<path d="M278.688 7.48176C281.265 7.90111 284.499 7.5153 286.268 8.94111C288.255 10.5514 290.647 14.5774 289.889 16.1541C284.92 26.6045 289.282 36.7193 290.259 46.8845C291.101 55.5736 293.055 64.162 293.897 72.8511C294.571 79.7789 291.96 81.6073 285.089 80.8357C257.904 77.8331 53.0332 75.4176 25.8154 72.7002C21.6047 72.2808 17.2593 73.5892 12.9813 73.6898C5.83994 73.8576 3.36406 69.7981 5.73888 63.1387C9.20849 53.46 7.38945 43.7141 5.43569 34.0186C3.61668 25.0276 1.46083 16.0701 0.197628 6.99523C-0.695036 0.637774 1.35977 -0.335127 7.92843 0.084231C17.2425 0.671331 26.6575 -0.0835931 35.921 0.838993C54.347 2.68417 250.393 4.73071 268.785 6.99524C272.052 7.39782 275.337 7.69976 278.621 8.05202C278.655 7.85073 278.688 7.66626 278.705 7.46497L278.688 7.48176Z" fill="white"/>
<path d="M52.2781 24.918C52.7576 24.9391 53.0773 24.9533 53.2997 24.9951C54.4157 25.1085 55.3678 25.3107 56.221 25.5726C57.0423 25.8331 57.7259 26.3117 58.3065 26.946C58.7037 27.3799 58.7436 27.9262 58.4277 28.5529C58.0797 29.1781 57.5875 29.4447 56.9843 29.3219C55.5641 28.8428 54.551 28.5738 53.913 28.5136C52.5064 28.4515 51.5069 28.5995 50.8811 28.9883C50.3832 29.3827 50.2327 29.8885 50.4283 30.5378C50.5919 31.1857 50.9585 31.5862 51.5603 31.7409C54.2067 32.018 56.1924 32.7463 57.5177 33.9259C58.7569 34.8776 59.533 36.1611 59.8127 37.807C60.0923 39.4529 59.7716 40.9122 58.9145 42.1876C58.2327 43.1185 57.3662 43.881 56.283 44.4737C55.1984 45.0985 54.0597 45.4966 52.867 45.6682C51.4782 45.9271 50.112 45.6746 48.7684 44.9106C47.4234 44.1785 46.4122 43.1409 45.7334 41.8296C45.5905 41.439 45.4448 41.1122 45.3602 40.8522C45.2436 40.5908 45.1299 40.2655 45.0495 39.9096C44.9691 39.5537 44.9207 39.1992 44.9682 38.849C45.0143 38.5307 45.0924 38.2138 45.233 37.9318C45.4445 37.4927 45.8075 37.2525 46.3218 37.2111C46.8042 37.1683 47.2141 37.3146 47.5183 37.6804C47.767 37.8515 47.9489 38.0838 48.0974 38.3466C48.2126 38.6399 48.3264 38.9653 48.4067 39.3212C48.4857 39.709 48.6009 40.0024 48.6897 40.1665C49.2576 41.0884 50.1884 41.7702 51.5156 42.1811C52.3688 42.443 53.2362 42.3853 54.1177 42.0078C54.9993 41.6303 55.6974 41.0526 56.2442 40.2759C56.5616 39.6173 56.6538 38.9808 56.4582 38.3315C56.2627 37.6822 55.9365 37.0913 55.4476 36.5572C54.9864 36.1204 54.457 35.7767 53.8595 35.5261C53.262 35.2755 52.4698 35.0803 51.5498 34.8795C50.5964 34.7093 49.9612 34.5851 49.6777 34.4765C48.8315 34.0548 48.1536 33.4483 47.6441 32.657C47.1025 31.8643 46.8195 31.019 46.7632 30.1197C46.6974 28.7074 47.232 27.4818 48.4004 26.4123C49.5673 25.3748 50.8381 24.8864 52.2781 24.918Z" fill="#111111"/>
<path d="M71.6889 31.1245C72.3922 31.1556 72.8994 31.2741 73.1801 31.4467C74.0804 32.095 74.6581 32.7932 74.8494 33.5384C75.0407 34.2835 74.9123 35.0146 74.531 35.6704C74.1483 36.3582 73.5752 37.0055 72.8756 37.6152C72.1746 38.2569 71.3833 38.7665 70.5324 39.1774C69.6814 39.5882 68.9001 39.874 68.1563 40.0333C67.3401 40.3817 66.1808 40.5227 64.7102 40.4577C64.7544 40.9081 64.8653 41.2974 65.043 41.6255C65.1873 41.9842 65.4318 42.2513 65.775 42.4586C66.1167 42.6979 66.4294 42.8719 66.7128 42.9805C66.9949 43.1211 67.4063 43.2354 67.9164 43.2899C68.425 43.3765 68.8072 43.4254 69.095 43.4381C69.3813 43.4828 69.7649 43.4997 70.2764 43.5223C70.6281 43.5378 70.9769 43.6173 71.2909 43.7593C72.0135 44.0795 72.4427 44.5149 72.5132 45.0945C72.6462 45.709 72.3082 46.1105 71.4991 46.299C71.2085 46.3502 70.7915 46.3638 70.28 46.3412C69.7351 46.3492 69.1291 46.2904 68.3981 46.162C67.667 46.0336 66.9708 45.8427 66.2788 45.5559C65.5548 45.2676 64.867 44.8849 64.214 44.4397C63.561 43.9944 63.011 43.3936 62.5931 42.7025C62.1432 42.0099 61.8588 41.1966 61.708 40.261C61.5251 39.324 61.6051 38.2385 61.9159 37.003C62.1863 35.9579 62.7082 35.0201 63.4816 34.1894C64.255 33.3587 65.1464 32.7574 66.1586 32.3217C67.1389 31.8845 68.1135 31.5752 69.0838 31.3618C70.0208 31.179 70.8896 31.0892 71.6889 31.1245ZM70.2304 33.6867C70.0705 33.6796 69.9093 33.7045 69.6841 33.7266C68.5553 33.901 67.4443 34.3964 66.3832 35.2144C65.158 36.1212 64.9337 36.848 65.7423 37.3963C66.0244 37.5368 66.4372 37.6191 66.9806 37.6431C67.5227 37.6991 68.1038 37.5967 68.6891 37.3983C69.2744 37.1999 69.7986 36.9348 70.2603 36.6349C70.722 36.335 71.0281 35.9321 71.1466 35.4248C71.2637 34.9495 71.1584 34.4324 70.7668 33.8705C70.6751 33.7704 70.4861 33.698 70.2304 33.6867Z" fill="#111111"/>
<path d="M86.4869 31.7782C87.1902 31.8092 87.6975 31.9277 87.9782 32.1003C88.8784 32.7487 89.4562 33.4468 89.6475 34.192C89.8388 34.9372 89.7104 35.6682 89.3291 36.324C88.9464 37.0118 88.3733 37.6591 87.6737 38.2689C86.9727 38.9106 86.1814 39.4201 85.3305 39.831C84.4795 40.2418 83.6981 40.5276 82.9544 40.687C82.1382 41.0353 80.9789 41.1763 79.5083 41.1113C79.5525 41.5617 79.6634 41.951 79.8411 42.2792C79.9854 42.6379 80.2298 42.9049 80.573 43.1123C80.9148 43.3516 81.2274 43.5255 81.5109 43.6342C81.793 43.7747 82.2043 43.889 82.7144 43.9436C83.2231 44.0301 83.6053 44.079 83.893 44.0917C84.1793 44.1364 84.563 44.1533 85.0745 44.1759C85.4261 44.1915 85.775 44.2709 86.089 44.4129C86.8116 44.7331 87.2408 45.1685 87.3113 45.7482C87.4443 46.3626 87.1062 46.7641 86.2971 46.9526C86.0066 47.0038 85.5896 47.0174 85.0781 46.9948C84.5332 47.0028 83.9272 46.944 83.1962 46.8156C82.4651 46.6872 81.7689 46.4963 81.0768 46.2095C80.3529 45.9213 79.6651 45.5386 79.0121 45.0933C78.3591 44.6481 77.8091 44.0472 77.3912 43.3561C76.9413 42.6636 76.6569 41.8502 76.506 40.9147C76.3232 39.9777 76.4032 38.8921 76.714 37.6567C76.9844 36.6116 77.5063 35.6737 78.2797 34.843C79.0531 34.0123 79.9445 33.4111 80.9567 32.9753C81.937 32.5381 82.9116 32.2289 83.8819 32.0155C84.8189 31.8326 85.6877 31.7429 86.4869 31.7782ZM85.0284 34.3403C84.8686 34.3333 84.7073 34.3582 84.4822 34.3803C83.3534 34.5546 82.2424 35.0501 81.1813 35.868C79.9561 36.7749 79.7318 37.5017 80.5404 38.0499C80.8225 38.1905 81.2352 38.2728 81.7787 38.2968C82.3208 38.3527 82.9018 38.2503 83.4872 38.0519C84.0725 37.8536 84.5967 37.5884 85.0584 37.2885C85.5201 36.9886 85.8261 36.5857 85.9446 36.0784C86.0617 35.6031 85.9564 35.086 85.5649 34.5242C85.4732 34.424 85.2842 34.3516 85.0284 34.3403Z" fill="#111111"/>
<path d="M92.9202 28.1866C93.3358 28.2049 93.7471 28.3192 94.1209 28.5599C94.4946 28.8006 94.7696 29.1011 94.9139 29.4598C94.9163 30.1325 94.9059 31.093 94.8536 32.2759C94.768 33.4893 94.7576 34.4497 94.8238 35.1253C98.082 33.1552 100.457 31.5945 101.949 30.4432C102.321 30.0112 102.809 29.8405 103.445 29.9327C104.05 30.0235 104.485 30.331 104.718 30.8538C104.857 31.3404 104.802 31.8504 104.493 32.3173C104.183 32.8161 103.784 33.1508 103.294 33.3534C100.96 34.7237 98.9459 36.0761 97.1894 37.4079C97.0268 37.4648 96.928 37.5245 96.8932 37.587C96.857 37.6815 96.8542 37.7455 96.9153 37.8122C96.9764 37.879 97.0375 37.9458 97.132 37.982C97.2251 38.0501 97.3182 38.1183 97.4433 38.1879C97.5349 38.288 97.628 38.3562 97.6572 38.4216C99.6283 40.2063 101.738 42.4776 103.955 45.2341C103.982 45.3314 104.166 45.5317 104.439 45.8641C104.713 46.1965 104.892 46.4927 104.978 46.7207C105.063 46.9807 105.051 47.2364 104.911 47.5185C104.809 47.6421 104.677 47.7324 104.546 47.7907C104.384 47.8476 104.224 47.8405 104.002 47.7987C103.779 47.7568 103.654 47.6872 103.56 47.651C103.465 47.6148 103.308 47.5438 103.058 47.4046C102.776 47.2641 102.651 47.1945 102.651 47.1945C101.748 46.61 100.881 45.9311 99.9877 45.1229C99.0945 44.3147 98.1416 43.4078 97.161 42.4035C96.1483 41.3979 95.3496 40.6259 94.7023 40.0528C94.6995 40.1167 94.6684 40.82 94.5757 42.1933C94.483 43.5665 94.4506 44.3018 94.5131 44.3366C94.4712 44.559 94.4877 44.912 94.5304 45.3944C94.5398 45.9073 94.5214 46.3229 94.4739 46.6731C94.3945 47.022 94.2205 47.3346 93.9549 47.5471C93.1721 47.8648 92.2158 47.7586 91.0513 47.2907L91.8591 29.0045C91.8398 28.7154 91.9442 28.5278 92.175 28.3779C92.4059 28.2279 92.6325 28.1739 92.9202 28.1866Z" fill="#111111"/>
<path d="M122.484 25.2643C122.933 25.2521 123.263 25.7471 123.51 26.6869C123.755 27.6587 123.756 28.3634 123.575 28.8359C123.864 28.8167 124.281 28.803 124.825 28.827C125.335 28.8816 125.691 28.8012 125.923 28.6193L125.954 27.916C125.94 27.499 125.955 27.1793 125.964 26.9555C125.974 26.7317 126.019 26.4454 126.096 26.1605C126.172 25.8756 126.277 25.6881 126.409 25.5978C126.706 25.3867 127.282 25.4121 128.167 25.6755C128.513 25.8189 128.689 26.179 128.695 26.7878C128.7 27.3966 128.671 28.036 128.645 28.6434C128.618 29.2508 128.729 29.6401 128.977 29.8112C129.808 30.5847 130.318 31.3759 130.503 32.249C130.773 32.6773 130.783 33.1582 130.537 33.6598C130.291 34.1614 129.899 34.3363 129.362 34.1525C129.076 34.1078 128.891 33.9395 128.775 33.6781C128.657 33.4486 128.573 33.1567 128.493 32.8008C128.413 32.4449 128.327 32.2169 128.172 32.0819L128.095 33.8402C128.033 34.5102 128.006 35.1176 127.953 35.5957C127.899 36.1058 127.886 36.3935 127.882 36.4894C127.872 36.7132 128.091 36.819 128.505 36.8693C129.173 36.9949 129.74 37.2121 130.267 37.5877C130.795 37.9634 131.127 38.4265 131.294 39.0104C131.617 40.402 131.601 41.4904 131.279 42.2449C130.829 42.9938 130.226 43.6078 129.5 44.0882C128.742 44.5672 127.963 44.7891 127.166 44.7218C127.201 46.1007 127.121 47.1862 126.897 47.9131C126.842 48.4231 126.507 48.7607 125.956 48.8965C125.404 49.0643 124.928 48.9792 124.525 48.6731C124.372 48.5062 124.284 48.3102 124.264 48.053C124.243 47.7959 124.254 47.5401 124.328 47.3191C124.402 47.0982 124.479 46.8133 124.555 46.5284C124.6 46.2421 124.643 45.9878 124.621 45.7626C124.801 45.3221 124.815 45.0024 124.662 44.8355C124.509 44.6686 124.195 44.5266 123.717 44.4734C123.239 44.4203 122.922 44.3422 122.765 44.2712C122.716 44.6534 122.694 45.1649 122.664 45.8363C122.634 46.5076 122.578 47.0497 122.53 47.4319C122.476 47.91 122.298 48.3185 121.996 48.6255C121.661 48.9631 121.273 49.042 120.83 48.9263C120.352 48.8732 119.977 48.6644 119.771 48.239C119.534 47.8121 119.458 47.3603 119.575 46.885C119.557 46.5639 119.61 46.0858 119.704 45.4172C119.797 44.7487 119.818 44.2692 119.802 43.9161C118.289 43.3688 117.066 42.7703 116.163 42.1858C115.626 42.002 115.353 41.6696 115.281 41.1219C115.208 40.6061 115.416 40.231 115.909 39.9645C116.139 39.8145 116.398 39.7618 116.684 39.8065C116.969 39.8832 117.221 39.9904 117.44 40.0962C117.628 40.2005 117.878 40.3397 118.159 40.5123C118.439 40.6848 118.691 40.792 118.913 40.8339C119.316 41.14 119.668 41.1555 119.965 40.9444C120.131 40.8236 120.273 40.5096 120.327 39.9995C120.382 39.4894 120.336 39.071 120.157 38.7748C119.948 38.4452 119.606 38.2059 119.131 38.0888C117.559 37.4108 116.764 36.5429 116.746 35.5171C116.753 34.6205 116.983 33.7658 117.372 32.9502C117.76 32.1345 118.304 31.4218 119.002 30.8441C119.104 30.7204 119.533 30.4191 120.227 29.9373C120.92 29.4874 121.322 29.0887 121.433 28.7413C121.538 28.5537 121.618 28.1729 121.645 27.5655C121.672 26.9581 121.728 26.416 121.845 25.9408C121.962 25.4655 122.164 25.2501 122.484 25.2643ZM124.848 31.1984C124.433 31.18 124.014 31.2256 123.559 31.3657L123.489 32.9641C123.42 33.7939 123.389 34.4972 123.365 35.0407C123.341 35.5842 123.349 36.129 123.358 36.642C123.45 36.7421 123.575 36.8117 123.767 36.8202C123.957 36.8606 124.151 36.8371 124.344 36.8136C124.505 36.7887 124.732 36.7346 124.99 36.682C125.217 36.6279 125.41 36.6044 125.507 36.5767C125.545 36.4503 125.6 35.9402 125.67 35.0784C125.74 34.2167 125.771 33.5134 125.793 33.0019C125.784 32.4889 125.773 32.008 125.731 31.5256C125.583 31.2309 125.3 31.1222 124.848 31.1984ZM120.959 36.568C121.071 34.0425 121.104 32.5705 121.061 32.0881C120.107 32.6546 119.523 33.5577 119.247 34.7307C119.243 34.8266 119.238 34.9225 119.266 35.0198C119.294 35.1171 119.322 35.2144 119.381 35.3132C119.409 35.4105 119.469 35.5092 119.498 35.5746C119.527 35.6399 119.62 35.7081 119.713 35.7763C119.805 35.8764 119.866 35.9432 119.928 35.978C119.959 36.0113 120.052 36.0795 120.177 36.1491C120.302 36.2187 120.397 36.2549 120.459 36.2897C120.49 36.3231 120.583 36.3912 120.74 36.4622C120.865 36.5318 120.959 36.568 120.959 36.568ZM125.171 39.1243C125.205 39.0618 125.079 39.0242 124.825 38.9809C124.57 38.9377 124.315 38.9264 124.025 38.9456C123.736 38.9649 123.542 39.0204 123.475 39.0815C123.341 39.2037 123.229 39.5831 123.135 40.2516C123.009 40.9187 123.054 41.3691 123.234 41.6333C123.599 42.0659 124.075 42.183 124.657 42.0485C124.795 41.8304 124.88 41.3537 124.944 40.6198C125.009 39.8859 125.062 39.4078 125.171 39.1243ZM128.616 41.6148C128.882 41.4023 129.057 41.0577 129.107 40.6435C129.158 40.2294 129.077 39.8735 128.836 39.5425C128.561 39.2421 128.151 39.0958 127.603 39.1677C127.563 39.3581 127.517 39.6764 127.466 40.0906C127.415 40.5367 127.368 40.855 127.359 41.0788C127.317 41.3012 127.304 41.5889 127.319 41.9739C127.411 42.0741 127.634 42.0839 127.928 41.9688C128.22 41.8856 128.449 41.7676 128.616 41.6148Z" fill="#111111"/>
<path d="M133.909 29.5166C134.05 29.2345 134.253 28.9872 134.517 28.8067C134.782 28.6262 135.075 28.511 135.367 28.4278C135.657 28.3766 136.01 28.3602 136.428 28.3466C136.845 28.333 137.228 28.3499 137.514 28.3946C137.801 28.4393 138.151 28.4868 138.597 28.5385C139.011 28.5888 139.33 28.6349 139.489 28.642C140.697 28.8555 141.798 29.3205 142.793 30.0051C143.754 30.7202 144.419 31.6144 144.724 32.6849C145.032 33.6915 144.988 34.6825 144.622 35.7234C144.224 36.7628 143.638 37.6979 142.864 38.5285C143.723 38.6626 144.538 39.0829 145.304 39.8535C146.166 40.6603 146.731 41.6462 146.998 42.8431C147.266 44.0401 147.152 45.1562 146.623 46.2539C146.204 47.0362 145.695 47.6864 145.062 48.235C144.429 48.7836 143.711 49.1042 142.938 49.1982C142.163 49.3241 141.329 49.3513 140.465 49.3452C139.6 49.339 138.576 49.3258 137.394 49.2416C136.213 49.1574 135.35 49.1193 134.87 49.0981C134.84 49.0647 134.777 49.0299 134.683 48.9937C134.369 48.8517 134.149 48.7459 133.994 48.6429C133.836 48.5719 133.681 48.469 133.528 48.3021C133.342 48.1657 133.22 48.0322 133.195 47.8709C133.17 47.7097 133.146 47.5165 133.156 47.2927C133.166 47.0689 133.243 46.784 133.353 46.4685C133.407 45.9585 133.431 45.415 133.487 44.8729C133.543 44.3309 133.566 43.8194 133.586 43.3718L133.656 41.7734C133.653 41.1326 133.675 40.6211 133.691 40.2694C133.706 39.9178 133.729 39.4063 133.729 38.6696C133.73 37.9329 133.719 37.4519 133.7 37.1628C133.679 36.9056 133.703 36.3622 133.706 35.5615C133.71 34.7609 133.699 34.28 133.677 34.0548C133.69 33.767 133.679 33.2861 133.677 32.6133C133.641 31.9711 133.634 31.3943 133.655 30.9148C133.677 30.4352 133.762 29.9585 133.909 29.5166ZM141.546 33.5695C141.227 32.8187 140.578 32.2776 139.63 31.9794C138.649 31.7119 137.658 31.6681 136.656 31.8801C136.579 32.165 136.504 32.4179 136.461 32.6722C136.384 32.9571 136.339 33.2435 136.327 33.5312C136.282 33.8175 136.271 34.0732 136.262 34.265C136.252 34.4888 136.273 34.746 136.289 35.0991C136.306 35.4521 136.295 35.7079 136.319 35.8691C136.344 36.0304 136.364 36.3195 136.377 36.7365C136.391 37.1535 136.412 37.4107 136.438 37.54C138.355 37.6567 139.843 37.306 140.902 36.552C141.397 36.2215 141.674 35.7533 141.795 35.1821C141.915 34.6429 141.811 34.0937 141.546 33.5695ZM143.264 41.8134C142.364 41.165 141.359 40.7042 140.279 40.4964C139.199 40.2885 137.89 40.1987 136.386 40.1643C136.351 40.9635 136.305 41.9865 136.217 43.2638C136.127 44.5731 136.05 45.5947 135.983 46.3925C136.868 46.6558 137.759 46.7913 138.653 46.8628C139.514 46.9329 140.414 46.8765 141.352 46.6617C142.289 46.4789 143.011 46.0944 143.546 45.5735C143.954 45.047 144.143 44.3827 144.113 43.6126C144.083 42.8425 143.789 42.253 143.264 41.8134Z" fill="#111111"/>
<path d="M157.219 29.1368C158.338 29.1862 159.381 29.4886 160.415 30.0147C161.513 30.5437 162.406 31.3519 163.16 32.4102C163.882 33.4671 164.375 34.6419 164.638 35.9348C165.264 39.1656 165.139 42.0108 164.294 44.4399C163.743 46.0492 162.818 47.4177 161.455 48.5426C160.092 49.6676 158.561 50.2406 156.891 50.327C155.38 50.4524 154.084 50.0749 153.066 49.1971C151.557 47.8172 150.428 45.8134 149.68 43.1858C149.2 41.7232 149.013 40.1454 149.118 38.4845C149.222 36.8555 149.578 35.3337 150.249 33.9219C150.792 32.5045 151.709 31.3278 153.031 30.3932C154.322 29.4573 155.718 29.0385 157.219 29.1368ZM157.459 33.1193C156.66 33.084 156.047 33.185 155.555 33.4516C154.598 34.082 153.844 35.2018 153.262 36.7776C152.823 38.0075 152.636 39.3445 152.668 40.7874C152.701 42.2302 153.028 43.5259 153.615 44.737C153.874 45.3891 154.299 45.9203 154.888 46.3628C155.446 46.8038 156.079 46.9599 156.755 46.8936C157.725 46.6802 158.58 46.1735 159.319 45.4053C160.026 44.6358 160.578 43.7313 160.944 42.6904C161.663 40.1917 161.639 37.8523 160.87 35.6723C160.679 34.9271 160.29 34.3014 159.638 33.8241C158.987 33.3469 158.26 33.1226 157.459 33.1193Z" fill="#111111"/>
<path d="M174.983 29.9214C176.102 29.9709 177.145 30.2732 178.179 30.7993C179.277 31.3283 180.17 32.1365 180.924 33.1948C181.646 34.2517 182.139 35.4266 182.402 36.7195C183.028 39.9502 182.902 42.7955 182.058 45.2246C181.507 46.8338 180.582 48.2023 179.219 49.3273C177.856 50.4522 176.325 51.0252 174.655 51.1116C173.144 51.2371 171.848 50.8595 170.83 49.9817C169.321 48.6018 168.192 46.598 167.444 43.9704C166.964 42.5078 166.777 40.9301 166.882 39.2691C166.986 37.6401 167.342 36.1183 168.013 34.7065C168.556 33.2891 169.473 32.1124 170.795 31.1779C172.086 30.2419 173.482 29.8231 174.983 29.9214ZM175.223 33.9039C174.424 33.8686 173.811 33.9697 173.319 34.2362C172.362 34.8666 171.608 35.9864 171.026 37.5623C170.587 38.7921 170.4 40.1292 170.432 41.572C170.465 43.0148 170.792 44.3105 171.379 45.5216C171.638 46.1737 172.063 46.705 172.652 47.1474C173.209 47.5884 173.843 47.7445 174.519 47.6783C175.489 47.4649 176.344 46.9581 177.083 46.19C177.79 45.4204 178.342 44.5159 178.708 43.475C179.427 40.9763 179.403 38.637 178.634 36.4569C178.443 35.7118 178.054 35.086 177.402 34.6088C176.751 34.1316 176.024 33.9073 175.223 33.9039Z" fill="#111111"/>
<path d="M193.865 30.5953C194.346 30.5845 194.88 30.8323 195.434 31.3373C195.984 31.9381 196.902 32.9076 198.222 34.2151C199.54 35.5546 200.519 36.5908 201.158 37.3557C201.25 37.4559 201.522 37.8202 202.007 38.4502C202.459 39.0788 202.762 39.4766 202.915 39.6435C203.066 39.8423 203.306 40.2053 203.699 40.7352C204.092 41.265 204.362 41.6933 204.573 41.9909C204.784 42.2885 205.023 42.6834 205.324 43.1132C205.593 43.5415 205.863 43.9698 206.102 44.3647C206.19 41.6459 206.063 37.9888 205.691 33.3598C205.424 32.8676 205.447 32.3561 205.725 31.8559C205.97 31.3862 206.396 31.1808 207 31.2716C207.551 31.1358 208.061 31.1903 208.56 31.5006C209.058 31.8109 209.392 32.2421 209.528 32.7926C209.53 33.4654 209.579 34.5246 209.611 35.9674C209.644 37.4102 209.66 38.5 209.691 39.2381C209.704 40.3918 209.779 42.317 209.883 45.0442C209.987 47.7715 210.055 49.8565 210.087 51.2993C209.97 51.7746 209.637 52.0802 209.086 52.216C208.535 52.3519 208.057 52.2987 207.686 51.9941C206.928 51.0317 205.81 49.5088 204.301 47.4242C202.759 45.3382 201.4 43.4844 200.187 41.9253C198.943 40.3649 197.694 38.9004 196.439 37.5957C196.517 39.457 196.499 41.314 196.45 43.1376C196.379 44.0313 196.342 44.8625 196.342 45.5992C196.341 46.3359 196.272 47.1657 196.137 48.0566C196 48.9794 195.805 49.7716 195.518 50.4636C195.333 51.032 194.902 51.3653 194.225 51.4635C193.548 51.5617 193.011 51.3779 192.681 50.8828C192.598 49.8542 192.692 47.0075 192.994 42.3443C193.296 37.6811 193.454 34.8373 193.499 33.8143C193.58 33.4335 193.597 33.0499 193.548 32.6954C193.5 32.3409 193.486 31.9239 193.537 31.5097C193.555 31.0941 193.664 30.8106 193.865 30.5953Z" fill="#111111"/>
<path d="M219.335 37.3898C219.846 37.4124 220.355 37.499 220.829 37.648C221.997 38.02 222.992 38.7045 223.814 39.6697C224.151 40.0369 224.449 40.5306 224.713 41.0868C225.419 42.4953 225.739 43.9509 225.641 45.452C225.579 46.1219 225.487 46.7585 225.333 47.3602C225.055 48.5651 224.624 49.6351 224.039 50.5382C223.939 50.6299 223.837 50.7535 223.702 50.9077C222.996 51.6773 222.202 52.2508 221.287 52.6589C220.405 53.0363 219.5 53.2206 218.573 53.1796C217.806 53.1457 217.046 52.952 216.323 52.6318C214.752 51.9538 213.582 50.8771 212.814 49.4018C212.489 48.7789 212.294 48.1296 212.167 47.3873C211.987 46.3863 212.003 45.298 212.245 44.1556C212.521 42.9826 212.954 41.8807 213.611 40.7886C213.853 40.3829 214.126 40.0105 214.429 39.6716C215.139 38.8381 215.934 38.2326 216.88 37.858C217.696 37.5096 218.504 37.3531 219.335 37.3898ZM219.424 41.1735L219.264 41.1664C219.136 41.1607 219.008 41.1551 218.879 41.1814L218.814 41.2106C218.62 41.2341 218.426 41.2895 218.262 41.3784C218.228 41.4089 218.164 41.4061 218.131 41.4367L218.066 41.4658C218.032 41.4964 217.967 41.5255 217.967 41.5255C217.836 41.5838 217.704 41.6741 217.539 41.7949C217.44 41.8546 217.373 41.9157 217.306 41.9768C217.139 42.1296 216.939 42.3129 216.769 42.5296C216.533 42.8075 216.294 43.1493 216.118 43.4938C215.702 44.2122 215.411 45.0001 215.212 45.8882C215.168 46.1425 215.157 46.3983 215.114 46.6526C215.101 46.9403 215.122 47.1975 215.144 47.4227L215.141 47.4866C215.192 47.7772 215.277 48.0371 215.363 48.2652C215.507 48.6239 215.752 48.8909 216.032 49.0635C216.374 49.3028 216.783 49.481 217.261 49.5341L217.293 49.5356C217.355 49.5704 217.419 49.5732 217.483 49.576C217.867 49.5929 218.253 49.546 218.641 49.467C219.192 49.3312 219.681 49.1286 220.176 48.7981C220.34 48.7092 220.44 48.6176 220.474 48.587C220.572 48.5273 220.671 48.4676 220.771 48.3759L220.838 48.3148C221.139 48.0398 221.407 47.7634 221.645 47.4536C221.645 47.4536 221.68 47.3911 221.713 47.3605C222.089 46.8326 222.307 46.2336 222.398 45.629L222.401 45.5651C222.404 45.5012 222.439 45.4386 222.439 45.4386L222.456 45.055C222.431 44.8938 222.439 44.7019 222.414 44.5407C222.346 43.8971 222.15 43.2798 221.79 42.7194C221.729 42.6526 221.668 42.5858 221.64 42.4885L221.518 42.355C221.487 42.3216 221.458 42.2563 221.458 42.2563C221.305 42.0894 221.183 41.9558 221.027 41.8529L220.966 41.7861C220.78 41.6498 220.593 41.5454 220.373 41.4396L220.374 41.4076L220.342 41.4062C220.06 41.2656 219.744 41.1876 219.424 41.1735Z" fill="#111111"/>
<path d="M240.354 53.5011C240.046 53.2312 239.688 52.6388 239.278 51.7559C238.869 50.873 238.522 50.0248 238.204 49.242C237.887 48.4593 237.649 48.0324 237.555 47.9962C237.492 47.9614 237.359 48.0836 237.122 48.3614C236.886 48.6393 236.581 49.0102 236.275 49.4131C235.967 49.8479 235.595 50.3119 235.19 50.7745C234.784 51.2691 234.38 51.6997 234.01 52.0998C233.64 52.4998 233.242 52.8026 232.881 53.0108C232.519 53.2191 232.198 53.2369 231.947 53.1297C231.822 53.0601 231.47 53.0446 230.861 53.0497C230.252 53.0549 229.899 53.0713 229.805 53.0351C229.396 52.8569 229.001 51.6543 228.652 49.3967C228.302 47.1711 228.048 44.9497 227.92 42.7659C227.76 40.5807 227.717 39.3937 227.757 39.2033C228.201 37.8455 228.922 37.493 229.883 38.2081C230.349 38.549 230.703 39.2373 231.009 40.2758C231.315 41.3143 231.494 42.3472 231.609 43.3773C231.69 44.4379 231.841 45.3735 232.029 46.1826C232.218 46.9917 232.423 47.4172 232.711 47.4299C233.224 47.4205 233.745 47.2193 234.245 46.7929C234.742 46.3985 235.147 45.9359 235.491 45.4066C235.803 44.8758 236.177 44.3798 236.615 43.8867C237.053 43.3936 237.452 43.0588 237.845 42.884C238.235 42.7411 238.745 42.7956 239.341 43.0782C239.465 43.1798 239.558 43.2479 239.65 43.3481C239.71 43.4468 239.737 43.5441 239.766 43.6095C239.794 43.7068 239.819 43.8681 239.84 44.1252C239.86 44.3824 239.914 44.609 239.939 44.7702C240.096 45.5779 240.444 46.3941 241.019 47.1562C241.533 47.8516 241.912 47.9644 242.188 47.5282C242.394 47.2169 242.64 46.7153 242.928 45.9913C243.215 45.2993 243.469 44.6379 243.722 43.9764C243.974 43.3469 244.268 42.495 244.669 41.3917C245.037 40.3188 245.328 39.5309 245.51 39.0265C245.517 38.8666 245.651 38.7444 245.877 38.6904C246.103 38.6683 246.389 38.7129 246.704 38.823C246.988 38.9316 247.237 39.1027 247.387 39.3336C247.6 39.5672 247.718 39.7967 247.74 40.0219C247.763 40.2471 247.715 40.5973 247.601 41.0087C246.879 44.308 245.816 47.3361 244.411 50.1248C242.771 53.1914 241.44 54.3177 240.354 53.5011Z" fill="#111111"/>
</svg>
