<svg width="11" height="8" viewBox="0 0 11 8" fill="none" xmlns="http://www.w3.org/2000/svg">
<path d="M4.12581 2.57523C3.37861 2.66863 3.4462 5.80038 4.54912 6.07611C5.51474 6.31751 6.42721 6.48797 7.42075 6.48797C8.10475 6.48797 8.4036 5.49016 8.65636 4.95491C9.8299 2.46976 7.42634 1.75149 5.56735 1.75149C5.01016 1.75149 4.26663 1.63354 3.82835 2.07183C3.05647 2.8437 4.38762 4.84547 4.94954 5.29813C5.71836 5.91746 6.67401 6.47195 7.46652 5.61847C8.17682 4.85353 8.64632 2.98663 7.61525 2.27776C6.61439 1.58968 4.05047 1.12057 3.09614 1.96886C2.22302 2.74497 2.20339 3.39467 3.34783 3.81083C3.65018 3.92077 6.87741 4.53646 6.91736 4.17694C6.96619 3.73749 5.51382 3.5802 6.09362 4.32567C7.69664 6.38669 7.46599 3.39896 6.18515 3.39896" stroke="#111111" stroke-width="3" stroke-linecap="round"/>
</svg>
