<svg width="25" height="24" viewBox="0 0 25 24" fill="none" xmlns="http://www.w3.org/2000/svg">
<path d="M21.7963 11.9667C21.7963 10.1223 21.3074 8.43916 20.3296 6.91738C19.3519 5.39561 18.0408 4.25649 16.3963 3.50005C16.063 3.3445 15.8185 3.10583 15.663 2.78405C15.5074 2.46227 15.4852 2.13427 15.5963 1.80005C15.7296 1.44449 15.9687 1.18894 16.3136 1.03338C16.6585 0.877829 17.0083 0.877829 17.363 1.03338C19.5185 1.98894 21.2407 3.45027 22.5296 5.41738C23.8185 7.3845 24.463 9.56716 24.463 11.9654C24.463 14.3636 23.8185 16.5472 22.5296 18.516C21.2407 20.4849 19.5185 21.9458 17.363 22.8987C17.0074 23.0543 16.6572 23.0543 16.3123 22.8987C15.9674 22.7432 15.7288 22.4876 15.5963 22.1321C15.4852 21.7987 15.5074 21.4712 15.663 21.1494C15.8185 20.8276 16.063 20.5885 16.3963 20.432C18.0408 19.6765 19.3519 18.5378 20.3296 17.0161C21.3074 15.4943 21.7963 13.8107 21.7963 11.9654M5.79631 16H1.79631C1.41853 16 1.10208 15.8721 0.846972 15.616C0.591861 15.3601 0.463861 15.0436 0.462972 14.6667V9.33338C0.462972 8.95561 0.590972 8.63916 0.846972 8.38405C1.10297 8.12894 1.41942 8.00094 1.79631 8.00005H5.79631L10.1963 3.60005C10.6185 3.17783 11.1021 3.08316 11.647 3.31605C12.1919 3.54894 12.4639 3.96583 12.463 4.56672V19.4334C12.463 20.0334 12.191 20.4503 11.647 20.684C11.103 20.9178 10.6194 20.8232 10.1963 20.4L5.79631 16ZM18.463 12.0001C18.463 12.9334 18.2519 13.8169 17.8296 14.6507C17.4074 15.4845 16.8519 16.1676 16.163 16.7C15.9407 16.8334 15.7128 16.8392 15.479 16.7174C15.2452 16.5956 15.1288 16.4009 15.1296 16.1334V7.80005C15.1296 7.53338 15.2465 7.33916 15.4803 7.21738C15.7141 7.09561 15.9416 7.10094 16.163 7.23338C16.8519 7.78894 17.4074 8.48894 17.8296 9.33338C18.2519 10.1778 18.463 11.0667 18.463 12.0001ZM9.79631 7.80005L6.92964 10.6667H3.12964V13.3334H6.92964L9.79631 16.2V7.80005Z" fill="black"/>
</svg>
