<svg width="26" height="26" viewBox="0 0 26 26" fill="none" xmlns="http://www.w3.org/2000/svg">
<path d="M20.3667 22.1C20.1222 22.2555 19.8778 22.4 19.6333 22.5333C19.3889 22.6667 19.1333 22.7889 18.8667 22.9C18.5333 23.0555 18.1947 23.0555 17.8507 22.9C17.5067 22.7444 17.2676 22.4889 17.1333 22.1333C17 21.8 17.0169 21.4724 17.184 21.1507C17.3511 20.8289 17.6009 20.5898 17.9333 20.4333C18.0889 20.3667 18.2333 20.2947 18.3667 20.2173C18.5 20.14 18.6333 20.0564 18.7667 19.9667L14 15.7333V19.4333C14 20.0333 13.728 20.4502 13.184 20.684C12.64 20.9178 12.1564 20.8231 11.7333 20.4L7.33333 16H3.33333C2.95556 16 2.63911 15.872 2.384 15.616C2.12889 15.36 2.00089 15.0435 2 14.6667V9.33332C2 8.95554 2.128 8.6391 2.384 8.38399C2.64 8.12888 2.95645 8.00088 3.33333 7.99999H6.26667L0.800001 2.53332C0.555556 2.28888 0.433334 1.97777 0.433334 1.59999C0.433334 1.22221 0.555556 0.911099 0.800001 0.666655C1.04445 0.42221 1.35556 0.299988 1.73333 0.299988C2.11111 0.299988 2.42222 0.42221 2.66667 0.666655L25.3333 23.3333C25.5778 23.5778 25.7 23.8889 25.7 24.2667C25.7 24.6444 25.5778 24.9555 25.3333 25.2C25.0889 25.4444 24.7778 25.5667 24.4 25.5667C24.0222 25.5667 23.7111 25.4444 23.4667 25.2L20.3667 22.1ZM23.3333 11.9667C23.3333 10.1222 22.8444 8.4391 21.8667 6.91732C20.8889 5.39554 19.5778 4.25643 17.9333 3.49999C17.6 3.34443 17.3556 3.10577 17.2 2.78399C17.0444 2.46221 17.0222 2.13421 17.1333 1.79999C17.2667 1.44443 17.5058 1.18888 17.8507 1.03332C18.1956 0.877766 18.5453 0.877766 18.9 1.03332C21.0556 1.98888 22.7778 3.44443 24.0667 5.39999C25.3556 7.35554 26 9.54443 26 11.9667C26 12.7 25.9333 13.428 25.8 14.1507C25.6667 14.8733 25.4778 15.5675 25.2333 16.2333C25.0556 16.7222 24.7836 17.028 24.4173 17.1507C24.0511 17.2733 23.712 17.2787 23.4 17.1667C23.088 17.0547 22.8382 16.8547 22.6507 16.5667C22.4631 16.2787 22.4573 15.9453 22.6333 15.5667C22.8778 14.9889 23.0556 14.4058 23.1667 13.8173C23.2778 13.2289 23.3333 12.612 23.3333 11.9667ZM17.7 7.23332C18.4333 7.69999 19 8.39999 19.4 9.33332C19.8 10.2667 20 11.1555 20 12V12.3333C20 12.4444 19.9889 12.5555 19.9667 12.6667C19.9222 12.9555 19.7667 13.1444 19.5 13.2333C19.2333 13.3222 18.9889 13.2555 18.7667 13.0333L17.0667 11.3333C16.9333 11.2 16.8333 11.0502 16.7667 10.884C16.7 10.7178 16.6667 10.5453 16.6667 10.3667V7.79999C16.6667 7.53332 16.7836 7.3391 17.0173 7.21732C17.2511 7.09554 17.4787 7.10088 17.7 7.23332ZM11 5.26665C10.8667 5.13332 10.8 4.97777 10.8 4.79999C10.8 4.62221 10.8667 4.46665 11 4.33332L11.7333 3.59999C12.1556 3.17777 12.6387 3.0831 13.1827 3.31599C13.7267 3.54888 13.9991 3.96577 14 4.56665V6.66665C14 6.97777 13.8667 7.18888 13.6 7.29999C13.3333 7.4111 13.0889 7.35554 12.8667 7.13332L11 5.26665ZM11.3333 16.2V13.0667L8.93333 10.6667H4.66667V13.3333H8.46667L11.3333 16.2Z" fill="black"/>
</svg>
